<svg width="175" height="32" viewBox="0 0 175 32" fill="none" xmlns="http://www.w3.org/2000/svg">
<path d="M2.124 24L0.300003 3.04H3.5L4.908 21.056H5.1L7.084 11.744H9.932L11.82 21.056H12.044L13.164 3.04H16.268L14.828 24H9.964L8.492 15.744H8.396L6.86 24H2.124ZM37.452 24V21.056H40.556V11.744H37.452V8.8H43.852L43.916 10.336C45.5373 9.41867 47.3933 8.84267 49.484 8.608H50.348V11.808H49.484C47.1373 12.0213 45.2813 12.512 43.916 13.28V21.12H48.684V24H37.452ZM55.564 24V2.72H58.86V14.912L60.972 14.688C62.1667 13.152 63.212 11.488 64.108 9.696L64.556 8.8H68.14C66.796 11.6373 65.3027 14.0053 63.66 15.904C65.0253 17.8453 66.4013 20.1387 67.788 22.784L68.428 24H64.684C63.6387 21.7387 62.444 19.5733 61.1 17.504L58.86 17.728V24H55.564Z" fill="black"/>
<path d="M72.044 8.64C72.044 4.69333 74.412 2.72 79.148 2.72C80.812 2.72 82.7107 3.09333 84.844 3.84L84.108 6.752C81.932 6.06933 80.2147 5.728 78.956 5.728C77.7187 5.70667 76.8227 5.90933 76.268 6.336C75.7133 6.76267 75.436 7.50933 75.436 8.576C75.436 9.30133 75.7453 9.92 76.364 10.432C76.9827 10.9227 78.028 11.36 79.5 11.744C81.74 12.3413 83.276 13.1093 84.108 14.048C84.94 14.9867 85.356 16.384 85.356 18.24C85.356 22.272 82.9453 24.288 78.124 24.288C76.524 24.288 74.508 23.9467 72.076 23.264L72.748 20.224C72.748 20.2453 73.0787 20.3413 73.74 20.512C75.8093 21.0453 77.4093 21.312 78.54 21.312C79.692 21.312 80.5453 21.024 81.1 20.448C81.676 19.872 81.964 19.1467 81.964 18.272C81.964 17.3973 81.7187 16.7253 81.228 16.256C80.7587 15.7867 79.884 15.3707 78.604 15.008C76.3 14.368 74.6253 13.5787 73.58 12.64C72.556 11.7013 72.044 10.368 72.044 8.64ZM90.124 30.144V11.552L89.932 8.8L93.132 8.576L93.324 9.984C94.7533 9.024 96.0227 8.544 97.132 8.544C99.2867 8.544 100.865 9.184 101.868 10.464C102.892 11.7227 103.404 13.696 103.404 16.384C103.404 19.072 102.785 21.0773 101.548 22.4C100.311 23.7013 98.5507 24.352 96.268 24.352C95.5 24.352 94.5507 24.128 93.42 23.68V30.144H90.124ZM97.004 11.616C96.0227 11.616 94.828 12.0853 93.42 13.024V20.64C94.444 21.088 95.372 21.312 96.204 21.312C98.636 21.312 99.852 19.6907 99.852 16.448C99.852 13.2053 98.9027 11.5947 97.004 11.616ZM110.988 12.8V24H107.692V2.656H110.988V9.696C112.716 8.928 114.071 8.544 115.052 8.544C116.887 8.544 118.177 9.07733 118.924 10.144C119.692 11.2107 120.076 12.768 120.076 14.816V24H116.78V14.752C116.78 13.856 116.599 13.12 116.236 12.544C115.895 11.9467 115.436 11.648 114.86 11.648C113.815 11.648 112.524 12.032 110.988 12.8ZM125.068 16.416C125.068 13.8347 125.644 11.8827 126.796 10.56C127.948 9.216 129.548 8.544 131.596 8.544C133.644 8.544 135.223 9.152 136.332 10.368C137.463 11.5627 138.049 13.3227 138.092 15.648L137.964 18.016H128.62C128.812 20.32 129.964 21.472 132.076 21.472C133.548 21.472 135.105 21.2053 136.748 20.672L137.42 23.456C136.737 23.6907 135.852 23.8933 134.764 24.064C133.676 24.256 132.78 24.352 132.076 24.352C127.404 24.352 125.068 21.7067 125.068 16.416ZM131.724 11.52C130.721 11.52 129.964 11.8187 129.452 12.416C128.961 12.992 128.684 13.9627 128.62 15.328H134.54C134.54 12.7893 133.601 11.52 131.724 11.52ZM143.052 24V21.056H146.156V11.744H143.052V8.8H149.452L149.516 10.336C151.137 9.41867 152.993 8.84267 155.084 8.608H155.948V11.808H155.084C152.737 12.0213 150.881 12.512 149.516 13.28V21.12H154.284V24H143.052ZM160.268 16.416C160.268 13.8347 160.844 11.8827 161.996 10.56C163.148 9.216 164.748 8.544 166.796 8.544C168.844 8.544 170.423 9.152 171.532 10.368C172.663 11.5627 173.249 13.3227 173.292 15.648L173.164 18.016H163.82C164.012 20.32 165.164 21.472 167.276 21.472C168.748 21.472 170.305 21.2053 171.948 20.672L172.62 23.456C171.937 23.6907 171.052 23.8933 169.964 24.064C168.876 24.256 167.98 24.352 167.276 24.352C162.604 24.352 160.268 21.7067 160.268 16.416ZM166.924 11.52C165.921 11.52 165.164 11.8187 164.652 12.416C164.161 12.992 163.884 13.9627 163.82 15.328H169.74C169.74 12.7893 168.801 11.52 166.924 11.52Z" fill="#62D745"/>
<path d="M22.3633 12.8901C22.8156 12.8901 23.2538 12.7332 23.6034 12.4462C23.953 12.1592 24.1923 11.7599 24.2805 11.3162C24.3687 10.8726 24.3003 10.4121 24.0871 10.0133C23.8738 9.6144 23.5288 9.3018 23.111 9.12875C22.6931 8.95569 22.2281 8.93288 21.7953 9.0642C21.3625 9.19551 20.9886 9.47284 20.7373 9.84892C20.486 10.225 20.3729 10.6766 20.4173 11.1267C20.4616 11.5768 20.6606 11.9976 20.9804 12.3175C21.1617 12.4996 21.3772 12.6439 21.6145 12.7422C21.8519 12.8405 22.1064 12.8908 22.3633 12.8901ZM21.607 10.1784C21.7818 10.0033 22.0119 9.89415 22.2582 9.86965C22.5044 9.84516 22.7515 9.90681 22.9574 10.0441C23.1633 10.1814 23.3152 10.3858 23.3872 10.6226C23.4593 10.8593 23.447 11.1137 23.3525 11.3424C23.258 11.5711 23.0871 11.7599 22.869 11.8768C22.6508 11.9936 22.3989 12.0312 22.1562 11.9831C21.9134 11.935 21.6949 11.8042 21.5378 11.613C21.3806 11.4219 21.2947 11.1821 21.2945 10.9347C21.294 10.7942 21.3214 10.6551 21.3751 10.5253C21.4287 10.3955 21.5075 10.2776 21.607 10.1784Z" fill="black"/>
<path d="M25.2324 16.0581C25.2324 15.2972 24.9301 14.5674 24.3921 14.0293C23.854 13.4912 23.1242 13.189 22.3633 13.189C21.6023 13.189 20.8726 13.4912 20.3345 14.0293C19.7964 14.5674 19.4941 15.2972 19.4941 16.0581C19.4941 16.1756 19.5408 16.2883 19.6239 16.3713C19.707 16.4544 19.8196 16.5011 19.9371 16.5011H24.7895C24.9069 16.5011 25.0196 16.4544 25.1027 16.3713C25.1858 16.2883 25.2324 16.1756 25.2324 16.0581ZM20.4301 15.6151C20.53 15.177 20.7757 14.7858 21.127 14.5056C21.4783 14.2254 21.9143 14.0727 22.3637 14.0727C22.813 14.0727 23.2491 14.2254 23.6004 14.5056C23.9517 14.7858 24.1974 15.177 24.2973 15.6151H20.4301Z" fill="black"/>
<path d="M25.5391 18.0607C25.2656 18.3341 25.0794 18.6826 25.004 19.0619C24.9286 19.4412 24.9673 19.8344 25.1153 20.1917C25.2633 20.549 25.514 20.8544 25.8355 21.0692C26.1571 21.2841 26.5352 21.3988 26.9219 21.3988C27.3086 21.3988 27.6867 21.2841 28.0083 21.0692C28.3298 20.8544 28.5805 20.549 28.7285 20.1917C28.8765 19.8344 28.9152 19.4412 28.8398 19.0619C28.7644 18.6826 28.5782 18.3341 28.3047 18.0607C28.124 17.8775 27.9087 17.7321 27.6713 17.6328C27.4339 17.5335 27.1792 17.4824 26.9219 17.4824C26.6646 17.4824 26.4099 17.5335 26.1725 17.6328C25.9351 17.7321 25.7198 17.8775 25.5391 18.0607ZM27.6781 20.1993C27.5033 20.3745 27.2732 20.4836 27.027 20.5081C26.7807 20.5326 26.5336 20.4709 26.3277 20.3336C26.1219 20.1964 25.97 19.9919 25.8979 19.7552C25.8259 19.5184 25.8382 19.2641 25.9327 19.0354C26.0272 18.8067 26.198 18.6178 26.4162 18.501C26.6343 18.3841 26.8862 18.3466 27.129 18.3947C27.3717 18.4428 27.5903 18.5735 27.7474 18.7647C27.9045 18.9559 27.9905 19.1956 27.9906 19.4431C27.9908 19.7266 27.8784 19.9986 27.6781 20.1993Z" fill="black"/>
<path d="M26.9219 21.6973C26.1612 21.6981 25.4319 22.0006 24.894 22.5385C24.3561 23.0764 24.0536 23.8057 24.0527 24.5664C24.0531 24.6836 24.1 24.7959 24.183 24.8786C24.2661 24.9614 24.3785 25.0078 24.4957 25.0078H29.348C29.4655 25.0078 29.5782 24.9611 29.6613 24.8781C29.7443 24.795 29.791 24.6823 29.791 24.5648C29.7898 23.8044 29.487 23.0755 28.9492 22.538C28.4114 22.0004 27.6823 21.6981 26.9219 21.6973ZM24.9887 24.1234C25.0886 23.6853 25.3343 23.2941 25.6856 23.0139C26.0369 22.7337 26.4729 22.581 26.9223 22.581C27.3716 22.581 27.8077 22.7337 28.159 23.0139C28.5103 23.2941 28.756 23.6853 28.8559 24.1234H24.9887Z" fill="black"/>
<path d="M31.6231 12.8902C32.0756 12.8906 32.5142 12.7341 32.8642 12.4473C33.2142 12.1605 33.4539 11.7612 33.5425 11.3175C33.6311 10.8738 33.563 10.413 33.3499 10.0139C33.1368 9.61468 32.7919 9.30175 32.3739 9.12842C31.956 8.95508 31.4908 8.93206 31.0578 9.06328C30.6247 9.1945 30.2506 9.47184 29.9991 9.84802C29.7477 10.2242 29.6345 10.676 29.6788 11.1263C29.7231 11.5766 29.9222 11.9976 30.2422 12.3175C30.4232 12.4994 30.6384 12.6436 30.8754 12.7419C31.1124 12.8402 31.3665 12.8906 31.6231 12.8902ZM30.8672 10.1785C31.0168 10.0289 31.2074 9.92701 31.4148 9.88574C31.6223 9.84447 31.8373 9.86564 32.0328 9.94659C32.2282 10.0275 32.3953 10.1646 32.5128 10.3405C32.6303 10.5164 32.693 10.7232 32.693 10.9347C32.693 11.1463 32.6303 11.353 32.5128 11.5289C32.3953 11.7048 32.2282 11.8419 32.0328 11.9228C31.8373 12.0038 31.6223 12.025 31.4148 11.9837C31.2074 11.9424 31.0168 11.8405 30.8672 11.691C30.7671 11.5921 30.6876 11.4743 30.6334 11.3445C30.5791 11.2147 30.5512 11.0754 30.5512 10.9347C30.5512 10.794 30.5791 10.6547 30.6334 10.5249C30.6876 10.3951 30.7671 10.2773 30.8672 10.1785Z" fill="black"/>
<path d="M31.623 13.189C30.8624 13.1898 30.1331 13.4923 29.5952 14.0302C29.0573 14.5681 28.7547 15.2974 28.7539 16.0581C28.7539 16.1756 28.8006 16.2883 28.8836 16.3713C28.9667 16.4544 29.0794 16.5011 29.1969 16.5011H34.0492C34.1667 16.5011 34.2794 16.4544 34.3624 16.3713C34.4455 16.2883 34.4922 16.1756 34.4922 16.0581C34.4914 15.2974 34.1888 14.5681 33.6509 14.0302C33.113 13.4923 32.3837 13.1898 31.623 13.189ZM29.6898 15.6151C29.7897 15.177 30.0354 14.7858 30.3867 14.5056C30.738 14.2254 31.1741 14.0727 31.6234 14.0727C32.0728 14.0727 32.5089 14.2254 32.8601 14.5056C33.2114 14.7858 33.4572 15.177 33.557 15.6151H29.6898Z" fill="black"/>
<path d="M23.9481 21.5314C22.7528 20.7257 21.9244 19.4803 21.6434 18.0665C21.6321 18.0095 21.6097 17.9552 21.5774 17.9068C21.5451 17.8584 21.5036 17.8168 21.4553 17.7844C21.407 17.752 21.3527 17.7295 21.2957 17.7181C21.2387 17.7067 21.1799 17.7066 21.1229 17.7179C21.0658 17.7292 21.0115 17.7516 20.9631 17.7839C20.9147 17.8161 20.8731 17.8576 20.8407 17.9059C20.8084 17.9543 20.7858 18.0085 20.7744 18.0656C20.763 18.1226 20.7629 18.1813 20.7742 18.2384C21.1011 19.8814 22.0638 21.3288 23.4527 22.2653C23.5009 22.3001 23.5555 22.3249 23.6134 22.3381C23.6712 22.3514 23.7312 22.3529 23.7896 22.3425C23.8481 22.3321 23.9039 22.3101 23.9537 22.2778C24.0034 22.2454 24.0462 22.2034 24.0794 22.1541C24.1126 22.1049 24.1356 22.0495 24.147 21.9913C24.1584 21.933 24.1579 21.873 24.1457 21.8149C24.1334 21.7568 24.1096 21.7018 24.0757 21.6531C24.0417 21.6044 23.9983 21.563 23.9481 21.5314Z" fill="black"/>
<path d="M25.5285 11.7396C26.4926 11.4711 27.5117 11.4711 28.4758 11.7396C28.5147 11.7503 28.5549 11.7559 28.5953 11.756C28.7023 11.7559 28.8057 11.7171 28.8863 11.6467C28.9669 11.5763 29.0194 11.4792 29.0339 11.3731C29.0484 11.2671 29.0241 11.1594 28.9654 11.0699C28.9066 10.9805 28.8175 10.9153 28.7145 10.8864C27.5943 10.575 26.4104 10.575 25.2902 10.8864C25.1771 10.918 25.0811 10.9933 25.0234 11.0957C24.9657 11.198 24.951 11.3191 24.9826 11.4323C25.0142 11.5455 25.0895 11.6415 25.1919 11.6992C25.2942 11.7569 25.4153 11.7715 25.5285 11.7399V11.7396Z" fill="black"/>
<path d="M32.6883 17.7161C32.573 17.6934 32.4535 17.7175 32.356 17.7829C32.2584 17.8483 32.1908 17.9497 32.1679 18.0649C32.0356 18.7374 31.7765 19.3786 31.4047 19.9544C31.0032 20.5793 30.4786 21.1159 29.8629 21.5313C29.7721 21.5997 29.711 21.7004 29.6924 21.8125C29.6738 21.9246 29.6989 22.0396 29.7627 22.1337C29.8265 22.2278 29.924 22.2937 30.035 22.3179C30.1461 22.3422 30.2622 22.3227 30.3594 22.2637C31.7483 21.3272 32.711 19.8798 33.0379 18.2368C33.0491 18.1796 33.049 18.1208 33.0375 18.0637C33.026 18.0066 33.0034 17.9523 32.9709 17.904C32.9385 17.8556 32.8968 17.8141 32.8483 17.7819C32.7998 17.7497 32.7454 17.7273 32.6883 17.7161Z" fill="black"/>
</svg>
